<svg xmlns="http://www.w3.org/2000/svg" version="1.1" xmlns:xlink="http://www.w3.org/1999/xlink" xmlns:svgjs="http://svgjs.dev/svgjs" width="2000" height="2250" viewBox="0 0 2000 2250"><g transform="matrix(1,0,0,1,0.001312499999926331,0)"><svg viewBox="0 0 320 360" data-background-color="#ffffff" preserveAspectRatio="xMidYMid meet" height="2250" width="2000" xmlns="http://www.w3.org/2000/svg" xmlns:xlink="http://www.w3.org/1999/xlink"><g id="tight-bounds" transform="matrix(1,0,0,1,-0.00020999999998139174,0)"><svg viewBox="0 0 320 360" height="360" width="320"><rect width="320.00041999999996" height="360" fill="url(#5e2075f2-4b32-4b20-bf95-694feac038e8)" mask="url(#33ea39e3-12ad-4d69-a3fe-ffdba0ab6f91)" data-fill-palette-color="tertiary"></rect><g><svg></svg></g><g><svg viewBox="0 0 320 360" height="360" width="320"><g><path transform="translate(-17.77778,2.22222) scale(3.55556,3.55556)" d="M95 52c0-12.871-5.692-24.431-14.682-32.318-7.887-8.99-19.447-14.682-32.318-14.682-23.71 0-43 19.29-43 43 0 12.868 5.69 24.426 14.677 32.313 7.887 8.993 19.449 14.687 32.323 14.687 0.084 0 0.166-0.006 0.25-0.006 0.084 0 0.166 0.006 0.25 0.006 23.472 0 42.5-19.028 42.5-42.5 0-0.084-0.006-0.166-0.006-0.25 0-0.084 0.006-0.166 0.006-0.25zM21.828 73.371c-4.245-5.978-6.77-13.259-6.822-21.121 0.135-20.511 16.732-37.109 37.244-37.244 7.862 0.052 15.144 2.577 21.121 6.822 6.853 6.645 11.129 15.93 11.129 26.172 0 20.126-16.374 36.5-36.5 36.5-10.242 0-19.527-4.276-26.172-11.129zM6 48c0-23.159 18.841-42 42-42 9.858 0 18.926 3.422 26.1 9.13-6.463-3.888-14.024-6.13-22.1-6.13-23.71 0-43 19.29-43 43 0 8.074 2.241 15.633 6.127 22.095-5.706-7.172-9.127-16.239-9.127-26.095zM52 89c-10.08 0-19.227-4.055-25.905-10.615 6.174 4.469 13.743 7.115 21.905 7.115 20.678 0 37.5-16.822 37.5-37.5 0-8.162-2.646-15.731-7.115-21.905 6.56 6.678 10.615 15.825 10.615 25.905 0 20.402-16.598 37-37 37z" fill="url(#5e2075f2-4b32-4b20-bf95-694feac038e8)" fill-rule="nonzero" stroke="none" stroke-width="1" stroke-linecap="butt" stroke-linejoin="miter" stroke-miterlimit="10" stroke-dasharray="" stroke-dashoffset="0" font-family="none" font-weight="none" font-size="none" text-anchor="none" style="mix-blend-mode: normal" data-fill-palette-color="tertiary"></path></g><g transform="matrix(1,0,0,1,86.95594695062812,99)"><svg viewBox="0 0 146.08810609874376 162" height="162" width="146.08810609874376"><g><svg viewBox="0 0 146.08810609874376 162" height="162" width="146.08810609874376"><g><svg viewBox="0 0 192 212.91261027763755" height="162" width="146.08810609874376"><g transform="matrix(1,0,0,1,0,104.36137352852096)"><svg viewBox="0 0 192 108.5512367491166" height="108.5512367491166" width="192"><g id="textblocktransform"><svg viewBox="0 0 192 108.5512367491166" height="108.5512367491166" width="192" id="textblock"><g><svg viewBox="0 0 192 108.5512367491166" height="108.5512367491166" width="192"><g transform="matrix(1,0,0,1,0,0)"><svg width="192" viewBox="3.98 -35.16 62.18 35.16" height="108.5512367491166" data-palette-color="url(#77523892-edcb-41af-a772-8afef355575e)"></svg></g></svg></g></svg></g></svg></g><g transform="matrix(1,0,0,1,36.672,0)"><svg viewBox="0 0 118.656 88.52114285714286" height="88.52114285714286" width="118.656"><g><svg xmlns:dc="http://purl.org/dc/elements/1.1/" xmlns:cc="http://creativecommons.org/ns#" xmlns:rdf="http://www.w3.org/1999/02/22-rdf-syntax-ns#" xmlns:svg="http://www.w3.org/2000/svg" xmlns="http://www.w3.org/2000/svg" xmlns:sodipodi="http://sodipodi.sourceforge.net/DTD/sodipodi-0.dtd" xmlns:inkscape="http://www.inkscape.org/namespaces/inkscape" preserveAspectRatio="xMidYMid" viewBox="0 0 63 47" version="1.1" x="0" y="0" height="88.52114285714286" width="118.656" class="icon-icon-0" data-fill-palette-color="accent" id="icon-0"></svg></g></svg></g><g></g></svg></g></svg></g></svg></g></svg></g><defs></defs><mask id="1ce0b677-e1b6-40e5-a311-ceacfed4335e"><g id="SvgjsG1481"><svg viewBox="0 0 320 360" height="360" width="320"><g><svg></svg></g><g><svg viewBox="0 0 320 360" height="360" width="320"><g><path transform="translate(-17.77778,2.22222) scale(3.55556,3.55556)" d="M95 52c0-12.871-5.692-24.431-14.682-32.318-7.887-8.99-19.447-14.682-32.318-14.682-23.71 0-43 19.29-43 43 0 12.868 5.69 24.426 14.677 32.313 7.887 8.993 19.449 14.687 32.323 14.687 0.084 0 0.166-0.006 0.25-0.006 0.084 0 0.166 0.006 0.25 0.006 23.472 0 42.5-19.028 42.5-42.5 0-0.084-0.006-0.166-0.006-0.25 0-0.084 0.006-0.166 0.006-0.25zM21.828 73.371c-4.245-5.978-6.77-13.259-6.822-21.121 0.135-20.511 16.732-37.109 37.244-37.244 7.862 0.052 15.144 2.577 21.121 6.822 6.853 6.645 11.129 15.93 11.129 26.172 0 20.126-16.374 36.5-36.5 36.5-10.242 0-19.527-4.276-26.172-11.129zM6 48c0-23.159 18.841-42 42-42 9.858 0 18.926 3.422 26.1 9.13-6.463-3.888-14.024-6.13-22.1-6.13-23.71 0-43 19.29-43 43 0 8.074 2.241 15.633 6.127 22.095-5.706-7.172-9.127-16.239-9.127-26.095zM52 89c-10.08 0-19.227-4.055-25.905-10.615 6.174 4.469 13.743 7.115 21.905 7.115 20.678 0 37.5-16.822 37.5-37.5 0-8.162-2.646-15.731-7.115-21.905 6.56 6.678 10.615 15.825 10.615 25.905 0 20.402-16.598 37-37 37z" fill="black" fill-rule="nonzero" stroke="none" stroke-width="1" stroke-linecap="butt" stroke-linejoin="miter" stroke-miterlimit="10" stroke-dasharray="" stroke-dashoffset="0" font-family="none" font-weight="none" font-size="none" text-anchor="none" style="mix-blend-mode: normal"></path></g><g transform="matrix(1,0,0,1,86.95594695062812,99)"><svg viewBox="0 0 146.08810609874376 162" height="162" width="146.08810609874376"><g><svg viewBox="0 0 146.08810609874376 162" height="162" width="146.08810609874376"><g><svg viewBox="0 0 192 212.91261027763755" height="162" width="146.08810609874376"><g transform="matrix(1,0,0,1,0,104.36137352852096)"><svg viewBox="0 0 192 108.5512367491166" height="108.5512367491166" width="192"><g id="SvgjsG1480"><svg viewBox="0 0 192 108.5512367491166" height="108.5512367491166" width="192" id="SvgjsSvg1479"><g><svg viewBox="0 0 192 108.5512367491166" height="108.5512367491166" width="192"><g transform="matrix(1,0,0,1,0,0)"><svg width="192" viewBox="3.98 -35.16 62.18 35.16" height="108.5512367491166" data-palette-color="url(#77523892-edcb-41af-a772-8afef355575e)"><path d="M29.22-4.47L29.22 0 3.98 0 3.98-35.16 13.67-35.16 13.67-4.47 29.22-4.47ZM66.16-9.55L66.16-9.55Q66.16-8.06 65.67-6.76 65.18-5.47 64.33-4.41 63.47-3.34 62.34-2.51 61.2-1.68 59.9-1.12 58.59-0.56 57.2-0.28 55.81 0 54.47 0L54.47 0 33.79 0 33.79-35.16 52.68-35.16Q53.93-35.16 55.3-34.97 56.66-34.79 57.97-34.4 59.27-34.01 60.46-33.37 61.64-32.74 62.53-31.82 63.43-30.91 63.95-29.71 64.48-28.52 64.48-26.98L64.48-26.98Q64.48-25.51 63.89-24.32 63.3-23.12 62.31-22.18 61.33-21.24 60.04-20.52 58.76-19.8 57.35-19.26L57.35-19.26Q59.13-18.77 60.73-17.97 62.33-17.16 63.54-15.99 64.74-14.82 65.45-13.22 66.16-11.62 66.16-9.55ZM54.64-26.12L54.64-26.12Q54.64-29.1 53.06-30.47 51.49-31.84 48.58-31.84L48.58-31.84 43.48-31.84 43.48-20.43 47.75-20.43Q49.07-20.43 50.31-20.76 51.56-21.09 52.52-21.79 53.49-22.49 54.06-23.56 54.64-24.63 54.64-26.12ZM56.35-10.16L56.35-10.16Q56.35-11.6 55.98-12.85 55.61-14.11 54.86-15.03 54.1-15.94 52.96-16.47 51.83-16.99 50.29-16.99L50.29-16.99 43.48-16.99 43.48-3.42 49.44-3.42Q50.93-3.42 52.19-3.91 53.46-4.39 54.39-5.27 55.32-6.15 55.83-7.4 56.35-8.64 56.35-10.16Z" opacity="1" transform="matrix(1,0,0,1,0,0)" fill="white" class="wordmark-text-0" id="SvgjsPath1478"></path></svg></g></svg></g></svg></g></svg></g><g transform="matrix(1,0,0,1,36.672,0)"><svg viewBox="0 0 118.656 88.52114285714286" height="88.52114285714286" width="118.656"><g><svg xmlns:dc="http://purl.org/dc/elements/1.1/" xmlns:cc="http://creativecommons.org/ns#" xmlns:rdf="http://www.w3.org/1999/02/22-rdf-syntax-ns#" xmlns:svg="http://www.w3.org/2000/svg" xmlns="http://www.w3.org/2000/svg" xmlns:sodipodi="http://sodipodi.sourceforge.net/DTD/sodipodi-0.dtd" xmlns:inkscape="http://www.inkscape.org/namespaces/inkscape" preserveAspectRatio="xMidYMid" viewBox="0 0 63 47" version="1.1" x="0" y="0" height="88.52114285714286" width="118.656" class="icon-icon-0" data-fill-palette-color="accent" id="SvgjsSvg1477"><path d="M9.5 0C4.253 0 0 4.253 0 9.5L0 37.5C0 42.747 4.253 47 9.5 47L53.5 47C58.747 47 63 42.747 63 37.5L63 9.5C63 4.253 58.747 0 53.5 0L9.5 0zM9.5 3L53.5 3C57.09 3 60 5.91 60 9.5L60 14 3 14 3 9.5C3 5.91 5.91 3 9.5 3zM12.75 6C11.187 6 9.906 7.281 9.906 8.844 9.906 10.407 11.187 11.656 12.75 11.656 14.313 11.656 15.594 10.407 15.594 8.844 15.594 7.281 14.313 6 12.75 6zM22.938 6C21.375 6 20.125 7.281 20.125 8.844 20.125 10.407 21.375 11.656 22.938 11.656 24.5 11.656 25.781 10.407 25.781 8.844 25.781 7.281 24.5 6 22.938 6zM32 6C30.437 6 29.156 7.281 29.156 8.844 29.156 10.407 30.437 11.656 32 11.656 33.562 11.656 34.813 10.407 34.813 8.844 34.813 7.281 33.562 6 32 6zM3 17L60 17 60 37.5C60 41.09 57.09 44 53.5 44L9.5 44C5.91 44 3 41.09 3 37.5L3 17zM17.969 23C17.523 23.05 17.122 23.294 16.875 23.688L8.656 36.688C8.214 37.388 8.424 38.34 9.125 38.781 9.373 38.939 9.632 39 9.906 39 10.403 39 10.902 38.764 11.188 38.313L17.344 28.563 18.625 35.781C18.707 36.236 18.997 36.628 19.406 36.844 19.813 37.059 20.297 37.063 20.719 36.875L25.625 34.688 31.438 38.719C31.787 38.964 32.21 39.064 32.625 38.969 33.04 38.87 33.389 38.594 33.594 38.219L39.719 26.938 51.594 38.563C52.184 39.141 53.139 39.154 53.719 38.563 54.299 37.971 54.312 37.017 53.719 36.438L40.406 23.406C40.07 23.078 39.592 22.936 39.125 23 38.66 23.07 38.256 23.336 38.031 23.75L31.75 35.313 26.625 31.75C26.192 31.449 25.637 31.381 25.156 31.594L21.25 33.375 19.594 24.219C19.485 23.609 19.013 23.119 18.406 23 18.254 22.971 18.117 22.983 17.969 23z" fill="black" fill-rule="evenodd"></path></svg></g></svg></g><g></g></svg></g></svg></g></svg></g></svg></g><defs><mask></mask></defs></svg><rect width="320" height="360" fill="black" stroke="none" visibility="hidden"></rect></g></mask><linearGradient x1="0" x2="1" y1="0.548" y2="0.55" id="77523892-edcb-41af-a772-8afef355575e"><stop stop-color="#ff6cab" offset="0"></stop><stop stop-color="#7366ff" offset="1"></stop></linearGradient><rect width="320.00041999999996" height="360" fill="url(#77523892-edcb-41af-a772-8afef355575e)" mask="url(#1ce0b677-e1b6-40e5-a311-ceacfed4335e)" data-fill-palette-color="primary"></rect><mask id="278307ff-2613-4e0d-a1ab-53b7033c0509"><g id="SvgjsG1490"><svg viewBox="0 0 320 360" height="360" width="320"><g><svg></svg></g><g><svg viewBox="0 0 320 360" height="360" width="320"><g><path transform="translate(-17.77778,2.22222) scale(3.55556,3.55556)" d="M95 52c0-12.871-5.692-24.431-14.682-32.318-7.887-8.99-19.447-14.682-32.318-14.682-23.71 0-43 19.29-43 43 0 12.868 5.69 24.426 14.677 32.313 7.887 8.993 19.449 14.687 32.323 14.687 0.084 0 0.166-0.006 0.25-0.006 0.084 0 0.166 0.006 0.25 0.006 23.472 0 42.5-19.028 42.5-42.5 0-0.084-0.006-0.166-0.006-0.25 0-0.084 0.006-0.166 0.006-0.25zM21.828 73.371c-4.245-5.978-6.77-13.259-6.822-21.121 0.135-20.511 16.732-37.109 37.244-37.244 7.862 0.052 15.144 2.577 21.121 6.822 6.853 6.645 11.129 15.93 11.129 26.172 0 20.126-16.374 36.5-36.5 36.5-10.242 0-19.527-4.276-26.172-11.129zM6 48c0-23.159 18.841-42 42-42 9.858 0 18.926 3.422 26.1 9.13-6.463-3.888-14.024-6.13-22.1-6.13-23.71 0-43 19.29-43 43 0 8.074 2.241 15.633 6.127 22.095-5.706-7.172-9.127-16.239-9.127-26.095zM52 89c-10.08 0-19.227-4.055-25.905-10.615 6.174 4.469 13.743 7.115 21.905 7.115 20.678 0 37.5-16.822 37.5-37.5 0-8.162-2.646-15.731-7.115-21.905 6.56 6.678 10.615 15.825 10.615 25.905 0 20.402-16.598 37-37 37z" fill="black" fill-rule="nonzero" stroke="none" stroke-width="1" stroke-linecap="butt" stroke-linejoin="miter" stroke-miterlimit="10" stroke-dasharray="" stroke-dashoffset="0" font-family="none" font-weight="none" font-size="none" text-anchor="none" style="mix-blend-mode: normal"></path></g><g transform="matrix(1,0,0,1,86.95594695062812,99)"><svg viewBox="0 0 146.08810609874376 162" height="162" width="146.08810609874376"><g><svg viewBox="0 0 146.08810609874376 162" height="162" width="146.08810609874376"><g><svg viewBox="0 0 192 212.91261027763755" height="162" width="146.08810609874376"><g transform="matrix(1,0,0,1,0,104.36137352852096)"><svg viewBox="0 0 192 108.5512367491166" height="108.5512367491166" width="192"><g id="SvgjsG1489"><svg viewBox="0 0 192 108.5512367491166" height="108.5512367491166" width="192" id="SvgjsSvg1488"><g><svg viewBox="0 0 192 108.5512367491166" height="108.5512367491166" width="192"><g transform="matrix(1,0,0,1,0,0)"><svg width="192" viewBox="3.98 -35.16 62.18 35.16" height="108.5512367491166" data-palette-color="url(#77523892-edcb-41af-a772-8afef355575e)"></svg></g></svg></g></svg></g></svg></g><g transform="matrix(1,0,0,1,36.672,0)"><svg viewBox="0 0 118.656 88.52114285714286" height="88.52114285714286" width="118.656"><g><svg xmlns:dc="http://purl.org/dc/elements/1.1/" xmlns:cc="http://creativecommons.org/ns#" xmlns:rdf="http://www.w3.org/1999/02/22-rdf-syntax-ns#" xmlns:svg="http://www.w3.org/2000/svg" xmlns="http://www.w3.org/2000/svg" xmlns:sodipodi="http://sodipodi.sourceforge.net/DTD/sodipodi-0.dtd" xmlns:inkscape="http://www.inkscape.org/namespaces/inkscape" preserveAspectRatio="xMidYMid" viewBox="0 0 63 47" version="1.1" x="0" y="0" height="88.52114285714286" width="118.656" class="icon-icon-0" data-fill-palette-color="accent" id="SvgjsSvg1487"><path d="M9.5 0C4.253 0 0 4.253 0 9.5L0 37.5C0 42.747 4.253 47 9.5 47L53.5 47C58.747 47 63 42.747 63 37.5L63 9.5C63 4.253 58.747 0 53.5 0L9.5 0zM9.5 3L53.5 3C57.09 3 60 5.91 60 9.5L60 14 3 14 3 9.5C3 5.91 5.91 3 9.5 3zM12.75 6C11.187 6 9.906 7.281 9.906 8.844 9.906 10.407 11.187 11.656 12.75 11.656 14.313 11.656 15.594 10.407 15.594 8.844 15.594 7.281 14.313 6 12.75 6zM22.938 6C21.375 6 20.125 7.281 20.125 8.844 20.125 10.407 21.375 11.656 22.938 11.656 24.5 11.656 25.781 10.407 25.781 8.844 25.781 7.281 24.5 6 22.938 6zM32 6C30.437 6 29.156 7.281 29.156 8.844 29.156 10.407 30.437 11.656 32 11.656 33.562 11.656 34.813 10.407 34.813 8.844 34.813 7.281 33.562 6 32 6zM3 17L60 17 60 37.5C60 41.09 57.09 44 53.5 44L9.5 44C5.91 44 3 41.09 3 37.5L3 17zM17.969 23C17.523 23.05 17.122 23.294 16.875 23.688L8.656 36.688C8.214 37.388 8.424 38.34 9.125 38.781 9.373 38.939 9.632 39 9.906 39 10.403 39 10.902 38.764 11.188 38.313L17.344 28.563 18.625 35.781C18.707 36.236 18.997 36.628 19.406 36.844 19.813 37.059 20.297 37.063 20.719 36.875L25.625 34.688 31.438 38.719C31.787 38.964 32.21 39.064 32.625 38.969 33.04 38.87 33.389 38.594 33.594 38.219L39.719 26.938 51.594 38.563C52.184 39.141 53.139 39.154 53.719 38.563 54.299 37.971 54.312 37.017 53.719 36.438L40.406 23.406C40.07 23.078 39.592 22.936 39.125 23 38.66 23.07 38.256 23.336 38.031 23.75L31.75 35.313 26.625 31.75C26.192 31.449 25.637 31.381 25.156 31.594L21.25 33.375 19.594 24.219C19.485 23.609 19.013 23.119 18.406 23 18.254 22.971 18.117 22.983 17.969 23z" fill="white" fill-rule="evenodd"></path></svg></g></svg></g><g></g></svg></g></svg></g></svg></g></svg></g><defs><mask></mask></defs><mask><g id="SvgjsG1486"><svg viewBox="0 0 320 360" height="360" width="320"><g><svg></svg></g><g><svg viewBox="0 0 320 360" height="360" width="320"><g><path transform="translate(-17.77778,2.22222) scale(3.55556,3.55556)" d="M95 52c0-12.871-5.692-24.431-14.682-32.318-7.887-8.99-19.447-14.682-32.318-14.682-23.71 0-43 19.29-43 43 0 12.868 5.69 24.426 14.677 32.313 7.887 8.993 19.449 14.687 32.323 14.687 0.084 0 0.166-0.006 0.25-0.006 0.084 0 0.166 0.006 0.25 0.006 23.472 0 42.5-19.028 42.5-42.5 0-0.084-0.006-0.166-0.006-0.25 0-0.084 0.006-0.166 0.006-0.25zM21.828 73.371c-4.245-5.978-6.77-13.259-6.822-21.121 0.135-20.511 16.732-37.109 37.244-37.244 7.862 0.052 15.144 2.577 21.121 6.822 6.853 6.645 11.129 15.93 11.129 26.172 0 20.126-16.374 36.5-36.5 36.5-10.242 0-19.527-4.276-26.172-11.129zM6 48c0-23.159 18.841-42 42-42 9.858 0 18.926 3.422 26.1 9.13-6.463-3.888-14.024-6.13-22.1-6.13-23.71 0-43 19.29-43 43 0 8.074 2.241 15.633 6.127 22.095-5.706-7.172-9.127-16.239-9.127-26.095zM52 89c-10.08 0-19.227-4.055-25.905-10.615 6.174 4.469 13.743 7.115 21.905 7.115 20.678 0 37.5-16.822 37.5-37.5 0-8.162-2.646-15.731-7.115-21.905 6.56 6.678 10.615 15.825 10.615 25.905 0 20.402-16.598 37-37 37z" fill="black" fill-rule="nonzero" stroke="none" stroke-width="1" stroke-linecap="butt" stroke-linejoin="miter" stroke-miterlimit="10" stroke-dasharray="" stroke-dashoffset="0" font-family="none" font-weight="none" font-size="none" text-anchor="none" style="mix-blend-mode: normal"></path></g><g transform="matrix(1,0,0,1,86.95594695062812,99)"><svg viewBox="0 0 146.08810609874376 162" height="162" width="146.08810609874376"><g><svg viewBox="0 0 146.08810609874376 162" height="162" width="146.08810609874376"><g><svg viewBox="0 0 192 212.91261027763755" height="162" width="146.08810609874376"><g transform="matrix(1,0,0,1,0,104.36137352852096)"><svg viewBox="0 0 192 108.5512367491166" height="108.5512367491166" width="192"><g id="SvgjsG1485"><svg viewBox="0 0 192 108.5512367491166" height="108.5512367491166" width="192" id="SvgjsSvg1484"><g><svg viewBox="0 0 192 108.5512367491166" height="108.5512367491166" width="192"><g transform="matrix(1,0,0,1,0,0)"><svg width="192" viewBox="3.98 -35.16 62.18 35.16" height="108.5512367491166" data-palette-color="url(#77523892-edcb-41af-a772-8afef355575e)"><path d="M29.22-4.47L29.22 0 3.98 0 3.98-35.16 13.67-35.16 13.67-4.47 29.22-4.47ZM66.16-9.55L66.16-9.55Q66.16-8.06 65.67-6.76 65.18-5.47 64.33-4.41 63.47-3.34 62.34-2.51 61.2-1.68 59.9-1.12 58.59-0.56 57.2-0.28 55.81 0 54.47 0L54.47 0 33.79 0 33.79-35.16 52.68-35.16Q53.93-35.16 55.3-34.97 56.66-34.79 57.97-34.4 59.27-34.01 60.46-33.37 61.64-32.74 62.53-31.82 63.43-30.91 63.95-29.71 64.48-28.52 64.48-26.98L64.48-26.98Q64.48-25.51 63.89-24.32 63.3-23.12 62.31-22.18 61.33-21.24 60.04-20.52 58.76-19.8 57.35-19.26L57.35-19.26Q59.13-18.77 60.73-17.97 62.33-17.16 63.54-15.99 64.74-14.82 65.45-13.22 66.16-11.62 66.16-9.55ZM54.64-26.12L54.64-26.12Q54.64-29.1 53.06-30.47 51.49-31.84 48.58-31.84L48.58-31.84 43.48-31.84 43.48-20.43 47.75-20.43Q49.07-20.43 50.31-20.76 51.56-21.09 52.52-21.79 53.49-22.49 54.06-23.56 54.64-24.63 54.64-26.12ZM56.35-10.16L56.35-10.16Q56.35-11.6 55.98-12.85 55.61-14.11 54.86-15.03 54.1-15.94 52.96-16.47 51.83-16.99 50.29-16.99L50.29-16.99 43.48-16.99 43.48-3.42 49.44-3.42Q50.93-3.42 52.19-3.91 53.46-4.39 54.39-5.27 55.32-6.15 55.83-7.4 56.35-8.64 56.35-10.16Z" opacity="1" transform="matrix(1,0,0,1,0,0)" fill="black" class="wordmark-text-0" id="SvgjsPath1483"></path></svg></g></svg></g></svg></g></svg></g><g transform="matrix(1,0,0,1,36.672,0)"><svg viewBox="0 0 118.656 88.52114285714286" height="88.52114285714286" width="118.656"><g><svg xmlns:dc="http://purl.org/dc/elements/1.1/" xmlns:cc="http://creativecommons.org/ns#" xmlns:rdf="http://www.w3.org/1999/02/22-rdf-syntax-ns#" xmlns:svg="http://www.w3.org/2000/svg" xmlns="http://www.w3.org/2000/svg" xmlns:sodipodi="http://sodipodi.sourceforge.net/DTD/sodipodi-0.dtd" xmlns:inkscape="http://www.inkscape.org/namespaces/inkscape" preserveAspectRatio="xMidYMid" viewBox="0 0 63 47" version="1.1" x="0" y="0" height="88.52114285714286" width="118.656" class="icon-icon-0" data-fill-palette-color="accent" id="SvgjsSvg1482"><path d="M9.5 0C4.253 0 0 4.253 0 9.5L0 37.5C0 42.747 4.253 47 9.5 47L53.5 47C58.747 47 63 42.747 63 37.5L63 9.5C63 4.253 58.747 0 53.5 0L9.5 0zM9.5 3L53.5 3C57.09 3 60 5.91 60 9.5L60 14 3 14 3 9.5C3 5.91 5.91 3 9.5 3zM12.75 6C11.187 6 9.906 7.281 9.906 8.844 9.906 10.407 11.187 11.656 12.75 11.656 14.313 11.656 15.594 10.407 15.594 8.844 15.594 7.281 14.313 6 12.75 6zM22.938 6C21.375 6 20.125 7.281 20.125 8.844 20.125 10.407 21.375 11.656 22.938 11.656 24.5 11.656 25.781 10.407 25.781 8.844 25.781 7.281 24.5 6 22.938 6zM32 6C30.437 6 29.156 7.281 29.156 8.844 29.156 10.407 30.437 11.656 32 11.656 33.562 11.656 34.813 10.407 34.813 8.844 34.813 7.281 33.562 6 32 6zM3 17L60 17 60 37.5C60 41.09 57.09 44 53.5 44L9.5 44C5.91 44 3 41.09 3 37.5L3 17zM17.969 23C17.523 23.05 17.122 23.294 16.875 23.688L8.656 36.688C8.214 37.388 8.424 38.34 9.125 38.781 9.373 38.939 9.632 39 9.906 39 10.403 39 10.902 38.764 11.188 38.313L17.344 28.563 18.625 35.781C18.707 36.236 18.997 36.628 19.406 36.844 19.813 37.059 20.297 37.063 20.719 36.875L25.625 34.688 31.438 38.719C31.787 38.964 32.21 39.064 32.625 38.969 33.04 38.87 33.389 38.594 33.594 38.219L39.719 26.938 51.594 38.563C52.184 39.141 53.139 39.154 53.719 38.563 54.299 37.971 54.312 37.017 53.719 36.438L40.406 23.406C40.07 23.078 39.592 22.936 39.125 23 38.66 23.07 38.256 23.336 38.031 23.75L31.75 35.313 26.625 31.75C26.192 31.449 25.637 31.381 25.156 31.594L21.25 33.375 19.594 24.219C19.485 23.609 19.013 23.119 18.406 23 18.254 22.971 18.117 22.983 17.969 23z" fill="black" fill-rule="evenodd"></path></svg></g></svg></g><g></g></svg></g></svg></g></svg></g></svg></g><defs><mask></mask></defs></svg><rect width="320" height="360" fill="black" stroke="none" visibility="hidden"></rect></g></mask></svg><rect width="320" height="360" fill="black" stroke="none" visibility="hidden"></rect></g></mask><linearGradient x1="0" x2="1" y1="0.548" y2="0.55" id="dc88a97e-d4f6-4631-80e8-ebb4441448d0"><stop stop-color="#ff6cab" offset="0"></stop><stop stop-color="#7366ff" offset="1"></stop></linearGradient><rect width="320.00041999999996" height="360" fill="url(#dc88a97e-d4f6-4631-80e8-ebb4441448d0)" mask="url(#278307ff-2613-4e0d-a1ab-53b7033c0509)" data-fill-palette-color="accent"></rect><mask id="33ea39e3-12ad-4d69-a3fe-ffdba0ab6f91"><g id="SvgjsG1508"><svg viewBox="0 0 320 360" height="360" width="320"><g><svg></svg></g><g><svg viewBox="0 0 320 360" height="360" width="320"><g><path transform="translate(-17.77778,2.22222) scale(3.55556,3.55556)" d="M95 52c0-12.871-5.692-24.431-14.682-32.318-7.887-8.99-19.447-14.682-32.318-14.682-23.71 0-43 19.29-43 43 0 12.868 5.69 24.426 14.677 32.313 7.887 8.993 19.449 14.687 32.323 14.687 0.084 0 0.166-0.006 0.25-0.006 0.084 0 0.166 0.006 0.25 0.006 23.472 0 42.5-19.028 42.5-42.5 0-0.084-0.006-0.166-0.006-0.25 0-0.084 0.006-0.166 0.006-0.25zM21.828 73.371c-4.245-5.978-6.77-13.259-6.822-21.121 0.135-20.511 16.732-37.109 37.244-37.244 7.862 0.052 15.144 2.577 21.121 6.822 6.853 6.645 11.129 15.93 11.129 26.172 0 20.126-16.374 36.5-36.5 36.5-10.242 0-19.527-4.276-26.172-11.129zM6 48c0-23.159 18.841-42 42-42 9.858 0 18.926 3.422 26.1 9.13-6.463-3.888-14.024-6.13-22.1-6.13-23.71 0-43 19.29-43 43 0 8.074 2.241 15.633 6.127 22.095-5.706-7.172-9.127-16.239-9.127-26.095zM52 89c-10.08 0-19.227-4.055-25.905-10.615 6.174 4.469 13.743 7.115 21.905 7.115 20.678 0 37.5-16.822 37.5-37.5 0-8.162-2.646-15.731-7.115-21.905 6.56 6.678 10.615 15.825 10.615 25.905 0 20.402-16.598 37-37 37z" fill="white" fill-rule="nonzero" stroke="none" stroke-width="1" stroke-linecap="butt" stroke-linejoin="miter" stroke-miterlimit="10" stroke-dasharray="" stroke-dashoffset="0" font-family="none" font-weight="none" font-size="none" text-anchor="none" style="mix-blend-mode: normal"></path></g><g transform="matrix(1,0,0,1,86.95594695062812,99)"><svg viewBox="0 0 146.08810609874376 162" height="162" width="146.08810609874376"><g><svg viewBox="0 0 146.08810609874376 162" height="162" width="146.08810609874376"><g><svg viewBox="0 0 192 212.91261027763755" height="162" width="146.08810609874376"><g transform="matrix(1,0,0,1,0,104.36137352852096)"><svg viewBox="0 0 192 108.5512367491166" height="108.5512367491166" width="192"><g id="SvgjsG1507"><svg viewBox="0 0 192 108.5512367491166" height="108.5512367491166" width="192" id="SvgjsSvg1506"><g><svg viewBox="0 0 192 108.5512367491166" height="108.5512367491166" width="192"><g transform="matrix(1,0,0,1,0,0)"><svg width="192" viewBox="3.98 -35.16 62.18 35.16" height="108.5512367491166" data-palette-color="url(#77523892-edcb-41af-a772-8afef355575e)"></svg></g></svg></g></svg></g></svg></g><g transform="matrix(1,0,0,1,36.672,0)"><svg viewBox="0 0 118.656 88.52114285714286" height="88.52114285714286" width="118.656"><g><svg xmlns:dc="http://purl.org/dc/elements/1.1/" xmlns:cc="http://creativecommons.org/ns#" xmlns:rdf="http://www.w3.org/1999/02/22-rdf-syntax-ns#" xmlns:svg="http://www.w3.org/2000/svg" xmlns="http://www.w3.org/2000/svg" xmlns:sodipodi="http://sodipodi.sourceforge.net/DTD/sodipodi-0.dtd" xmlns:inkscape="http://www.inkscape.org/namespaces/inkscape" preserveAspectRatio="xMidYMid" viewBox="0 0 63 47" version="1.1" x="0" y="0" height="88.52114285714286" width="118.656" class="icon-icon-0" data-fill-palette-color="accent" id="SvgjsSvg1505"></svg></g></svg></g><g></g></svg></g></svg></g></svg></g></svg></g><defs><mask></mask></defs><mask><g id="SvgjsG1504"><svg viewBox="0 0 320 360" height="360" width="320"><g><svg></svg></g><g><svg viewBox="0 0 320 360" height="360" width="320"><g><path transform="translate(-17.77778,2.22222) scale(3.55556,3.55556)" d="M95 52c0-12.871-5.692-24.431-14.682-32.318-7.887-8.99-19.447-14.682-32.318-14.682-23.71 0-43 19.29-43 43 0 12.868 5.69 24.426 14.677 32.313 7.887 8.993 19.449 14.687 32.323 14.687 0.084 0 0.166-0.006 0.25-0.006 0.084 0 0.166 0.006 0.25 0.006 23.472 0 42.5-19.028 42.5-42.5 0-0.084-0.006-0.166-0.006-0.25 0-0.084 0.006-0.166 0.006-0.25zM21.828 73.371c-4.245-5.978-6.77-13.259-6.822-21.121 0.135-20.511 16.732-37.109 37.244-37.244 7.862 0.052 15.144 2.577 21.121 6.822 6.853 6.645 11.129 15.93 11.129 26.172 0 20.126-16.374 36.5-36.5 36.5-10.242 0-19.527-4.276-26.172-11.129zM6 48c0-23.159 18.841-42 42-42 9.858 0 18.926 3.422 26.1 9.13-6.463-3.888-14.024-6.13-22.1-6.13-23.71 0-43 19.29-43 43 0 8.074 2.241 15.633 6.127 22.095-5.706-7.172-9.127-16.239-9.127-26.095zM52 89c-10.08 0-19.227-4.055-25.905-10.615 6.174 4.469 13.743 7.115 21.905 7.115 20.678 0 37.5-16.822 37.5-37.5 0-8.162-2.646-15.731-7.115-21.905 6.56 6.678 10.615 15.825 10.615 25.905 0 20.402-16.598 37-37 37z" fill="black" fill-rule="nonzero" stroke="none" stroke-width="1" stroke-linecap="butt" stroke-linejoin="miter" stroke-miterlimit="10" stroke-dasharray="" stroke-dashoffset="0" font-family="none" font-weight="none" font-size="none" text-anchor="none" style="mix-blend-mode: normal"></path></g><g transform="matrix(1,0,0,1,86.95594695062812,99)"><svg viewBox="0 0 146.08810609874376 162" height="162" width="146.08810609874376"><g><svg viewBox="0 0 146.08810609874376 162" height="162" width="146.08810609874376"><g><svg viewBox="0 0 192 212.91261027763755" height="162" width="146.08810609874376"><g transform="matrix(1,0,0,1,0,104.36137352852096)"><svg viewBox="0 0 192 108.5512367491166" height="108.5512367491166" width="192"><g id="SvgjsG1503"><svg viewBox="0 0 192 108.5512367491166" height="108.5512367491166" width="192" id="SvgjsSvg1502"><g><svg viewBox="0 0 192 108.5512367491166" height="108.5512367491166" width="192"><g transform="matrix(1,0,0,1,0,0)"><svg width="192" viewBox="3.98 -35.16 62.18 35.16" height="108.5512367491166" data-palette-color="url(#77523892-edcb-41af-a772-8afef355575e)"><path d="M29.22-4.47L29.22 0 3.98 0 3.98-35.16 13.67-35.16 13.67-4.47 29.22-4.47ZM66.16-9.55L66.16-9.55Q66.16-8.06 65.67-6.76 65.18-5.47 64.33-4.41 63.47-3.34 62.34-2.51 61.2-1.68 59.9-1.12 58.59-0.56 57.2-0.28 55.81 0 54.47 0L54.47 0 33.79 0 33.79-35.16 52.68-35.16Q53.93-35.16 55.3-34.97 56.66-34.79 57.97-34.4 59.27-34.01 60.46-33.37 61.64-32.74 62.53-31.82 63.43-30.91 63.95-29.71 64.48-28.52 64.48-26.98L64.48-26.98Q64.48-25.51 63.89-24.32 63.3-23.12 62.31-22.18 61.33-21.24 60.04-20.52 58.76-19.8 57.35-19.26L57.35-19.26Q59.13-18.77 60.73-17.97 62.33-17.16 63.54-15.99 64.74-14.82 65.45-13.22 66.16-11.62 66.16-9.55ZM54.64-26.12L54.64-26.12Q54.64-29.1 53.06-30.47 51.49-31.84 48.58-31.84L48.58-31.84 43.48-31.84 43.48-20.43 47.75-20.43Q49.07-20.43 50.31-20.76 51.56-21.09 52.52-21.79 53.49-22.49 54.06-23.56 54.64-24.63 54.64-26.12ZM56.35-10.16L56.35-10.16Q56.35-11.6 55.98-12.85 55.61-14.11 54.86-15.03 54.1-15.94 52.96-16.47 51.83-16.99 50.29-16.99L50.29-16.99 43.48-16.99 43.48-3.42 49.44-3.42Q50.93-3.42 52.19-3.91 53.46-4.39 54.39-5.27 55.32-6.15 55.83-7.4 56.35-8.64 56.35-10.16Z" opacity="1" transform="matrix(1,0,0,1,0,0)" fill="black" class="wordmark-text-0" id="SvgjsPath1501"></path></svg></g></svg></g></svg></g></svg></g><g transform="matrix(1,0,0,1,36.672,0)"><svg viewBox="0 0 118.656 88.52114285714286" height="88.52114285714286" width="118.656"><g><svg xmlns:dc="http://purl.org/dc/elements/1.1/" xmlns:cc="http://creativecommons.org/ns#" xmlns:rdf="http://www.w3.org/1999/02/22-rdf-syntax-ns#" xmlns:svg="http://www.w3.org/2000/svg" xmlns="http://www.w3.org/2000/svg" xmlns:sodipodi="http://sodipodi.sourceforge.net/DTD/sodipodi-0.dtd" xmlns:inkscape="http://www.inkscape.org/namespaces/inkscape" preserveAspectRatio="xMidYMid" viewBox="0 0 63 47" version="1.1" x="0" y="0" height="88.52114285714286" width="118.656" class="icon-icon-0" data-fill-palette-color="accent" id="SvgjsSvg1500"><path d="M9.5 0C4.253 0 0 4.253 0 9.5L0 37.5C0 42.747 4.253 47 9.5 47L53.5 47C58.747 47 63 42.747 63 37.5L63 9.5C63 4.253 58.747 0 53.5 0L9.5 0zM9.5 3L53.5 3C57.09 3 60 5.91 60 9.5L60 14 3 14 3 9.5C3 5.91 5.91 3 9.5 3zM12.75 6C11.187 6 9.906 7.281 9.906 8.844 9.906 10.407 11.187 11.656 12.75 11.656 14.313 11.656 15.594 10.407 15.594 8.844 15.594 7.281 14.313 6 12.75 6zM22.938 6C21.375 6 20.125 7.281 20.125 8.844 20.125 10.407 21.375 11.656 22.938 11.656 24.5 11.656 25.781 10.407 25.781 8.844 25.781 7.281 24.5 6 22.938 6zM32 6C30.437 6 29.156 7.281 29.156 8.844 29.156 10.407 30.437 11.656 32 11.656 33.562 11.656 34.813 10.407 34.813 8.844 34.813 7.281 33.562 6 32 6zM3 17L60 17 60 37.5C60 41.09 57.09 44 53.5 44L9.5 44C5.91 44 3 41.09 3 37.5L3 17zM17.969 23C17.523 23.05 17.122 23.294 16.875 23.688L8.656 36.688C8.214 37.388 8.424 38.34 9.125 38.781 9.373 38.939 9.632 39 9.906 39 10.403 39 10.902 38.764 11.188 38.313L17.344 28.563 18.625 35.781C18.707 36.236 18.997 36.628 19.406 36.844 19.813 37.059 20.297 37.063 20.719 36.875L25.625 34.688 31.438 38.719C31.787 38.964 32.21 39.064 32.625 38.969 33.04 38.87 33.389 38.594 33.594 38.219L39.719 26.938 51.594 38.563C52.184 39.141 53.139 39.154 53.719 38.563 54.299 37.971 54.312 37.017 53.719 36.438L40.406 23.406C40.07 23.078 39.592 22.936 39.125 23 38.66 23.07 38.256 23.336 38.031 23.75L31.75 35.313 26.625 31.75C26.192 31.449 25.637 31.381 25.156 31.594L21.25 33.375 19.594 24.219C19.485 23.609 19.013 23.119 18.406 23 18.254 22.971 18.117 22.983 17.969 23z" fill="black" fill-rule="evenodd"></path></svg></g></svg></g><g></g></svg></g></svg></g></svg></g></svg></g><defs><mask></mask></defs></svg><rect width="320" height="360" fill="black" stroke="none" visibility="hidden"></rect></g></mask><mask><g id="SvgjsG1499"><svg viewBox="0 0 320 360" height="360" width="320"><g><svg></svg></g><g><svg viewBox="0 0 320 360" height="360" width="320"><g><path transform="translate(-17.77778,2.22222) scale(3.55556,3.55556)" d="M95 52c0-12.871-5.692-24.431-14.682-32.318-7.887-8.99-19.447-14.682-32.318-14.682-23.71 0-43 19.29-43 43 0 12.868 5.69 24.426 14.677 32.313 7.887 8.993 19.449 14.687 32.323 14.687 0.084 0 0.166-0.006 0.25-0.006 0.084 0 0.166 0.006 0.25 0.006 23.472 0 42.5-19.028 42.5-42.5 0-0.084-0.006-0.166-0.006-0.25 0-0.084 0.006-0.166 0.006-0.25zM21.828 73.371c-4.245-5.978-6.77-13.259-6.822-21.121 0.135-20.511 16.732-37.109 37.244-37.244 7.862 0.052 15.144 2.577 21.121 6.822 6.853 6.645 11.129 15.93 11.129 26.172 0 20.126-16.374 36.5-36.5 36.5-10.242 0-19.527-4.276-26.172-11.129zM6 48c0-23.159 18.841-42 42-42 9.858 0 18.926 3.422 26.1 9.13-6.463-3.888-14.024-6.13-22.1-6.13-23.71 0-43 19.29-43 43 0 8.074 2.241 15.633 6.127 22.095-5.706-7.172-9.127-16.239-9.127-26.095zM52 89c-10.08 0-19.227-4.055-25.905-10.615 6.174 4.469 13.743 7.115 21.905 7.115 20.678 0 37.5-16.822 37.5-37.5 0-8.162-2.646-15.731-7.115-21.905 6.56 6.678 10.615 15.825 10.615 25.905 0 20.402-16.598 37-37 37z" fill="black" fill-rule="nonzero" stroke="none" stroke-width="1" stroke-linecap="butt" stroke-linejoin="miter" stroke-miterlimit="10" stroke-dasharray="" stroke-dashoffset="0" font-family="none" font-weight="none" font-size="none" text-anchor="none" style="mix-blend-mode: normal"></path></g><g transform="matrix(1,0,0,1,86.95594695062812,99)"><svg viewBox="0 0 146.08810609874376 162" height="162" width="146.08810609874376"><g><svg viewBox="0 0 146.08810609874376 162" height="162" width="146.08810609874376"><g><svg viewBox="0 0 192 212.91261027763755" height="162" width="146.08810609874376"><g transform="matrix(1,0,0,1,0,104.36137352852096)"><svg viewBox="0 0 192 108.5512367491166" height="108.5512367491166" width="192"><g id="SvgjsG1498"><svg viewBox="0 0 192 108.5512367491166" height="108.5512367491166" width="192" id="SvgjsSvg1497"><g><svg viewBox="0 0 192 108.5512367491166" height="108.5512367491166" width="192"><g transform="matrix(1,0,0,1,0,0)"><svg width="192" viewBox="3.98 -35.16 62.18 35.16" height="108.5512367491166" data-palette-color="url(#77523892-edcb-41af-a772-8afef355575e)"></svg></g></svg></g></svg></g></svg></g><g transform="matrix(1,0,0,1,36.672,0)"><svg viewBox="0 0 118.656 88.52114285714286" height="88.52114285714286" width="118.656"><g><svg xmlns:dc="http://purl.org/dc/elements/1.1/" xmlns:cc="http://creativecommons.org/ns#" xmlns:rdf="http://www.w3.org/1999/02/22-rdf-syntax-ns#" xmlns:svg="http://www.w3.org/2000/svg" xmlns="http://www.w3.org/2000/svg" xmlns:sodipodi="http://sodipodi.sourceforge.net/DTD/sodipodi-0.dtd" xmlns:inkscape="http://www.inkscape.org/namespaces/inkscape" preserveAspectRatio="xMidYMid" viewBox="0 0 63 47" version="1.1" x="0" y="0" height="88.52114285714286" width="118.656" class="icon-icon-0" data-fill-palette-color="accent" id="SvgjsSvg1496"><path d="M9.5 0C4.253 0 0 4.253 0 9.5L0 37.5C0 42.747 4.253 47 9.5 47L53.5 47C58.747 47 63 42.747 63 37.5L63 9.5C63 4.253 58.747 0 53.5 0L9.5 0zM9.5 3L53.5 3C57.09 3 60 5.91 60 9.5L60 14 3 14 3 9.5C3 5.91 5.91 3 9.5 3zM12.75 6C11.187 6 9.906 7.281 9.906 8.844 9.906 10.407 11.187 11.656 12.75 11.656 14.313 11.656 15.594 10.407 15.594 8.844 15.594 7.281 14.313 6 12.75 6zM22.938 6C21.375 6 20.125 7.281 20.125 8.844 20.125 10.407 21.375 11.656 22.938 11.656 24.5 11.656 25.781 10.407 25.781 8.844 25.781 7.281 24.5 6 22.938 6zM32 6C30.437 6 29.156 7.281 29.156 8.844 29.156 10.407 30.437 11.656 32 11.656 33.562 11.656 34.813 10.407 34.813 8.844 34.813 7.281 33.562 6 32 6zM3 17L60 17 60 37.5C60 41.09 57.09 44 53.5 44L9.5 44C5.91 44 3 41.09 3 37.5L3 17zM17.969 23C17.523 23.05 17.122 23.294 16.875 23.688L8.656 36.688C8.214 37.388 8.424 38.34 9.125 38.781 9.373 38.939 9.632 39 9.906 39 10.403 39 10.902 38.764 11.188 38.313L17.344 28.563 18.625 35.781C18.707 36.236 18.997 36.628 19.406 36.844 19.813 37.059 20.297 37.063 20.719 36.875L25.625 34.688 31.438 38.719C31.787 38.964 32.21 39.064 32.625 38.969 33.04 38.87 33.389 38.594 33.594 38.219L39.719 26.938 51.594 38.563C52.184 39.141 53.139 39.154 53.719 38.563 54.299 37.971 54.312 37.017 53.719 36.438L40.406 23.406C40.07 23.078 39.592 22.936 39.125 23 38.66 23.07 38.256 23.336 38.031 23.75L31.75 35.313 26.625 31.75C26.192 31.449 25.637 31.381 25.156 31.594L21.25 33.375 19.594 24.219C19.485 23.609 19.013 23.119 18.406 23 18.254 22.971 18.117 22.983 17.969 23z" fill="black" fill-rule="evenodd"></path></svg></g></svg></g><g></g></svg></g></svg></g></svg></g></svg></g><defs><mask></mask></defs><mask><g id="SvgjsG1495"><svg viewBox="0 0 320 360" height="360" width="320"><g><svg></svg></g><g><svg viewBox="0 0 320 360" height="360" width="320"><g><path transform="translate(-17.77778,2.22222) scale(3.55556,3.55556)" d="M95 52c0-12.871-5.692-24.431-14.682-32.318-7.887-8.99-19.447-14.682-32.318-14.682-23.71 0-43 19.29-43 43 0 12.868 5.69 24.426 14.677 32.313 7.887 8.993 19.449 14.687 32.323 14.687 0.084 0 0.166-0.006 0.25-0.006 0.084 0 0.166 0.006 0.25 0.006 23.472 0 42.5-19.028 42.5-42.5 0-0.084-0.006-0.166-0.006-0.25 0-0.084 0.006-0.166 0.006-0.25zM21.828 73.371c-4.245-5.978-6.77-13.259-6.822-21.121 0.135-20.511 16.732-37.109 37.244-37.244 7.862 0.052 15.144 2.577 21.121 6.822 6.853 6.645 11.129 15.93 11.129 26.172 0 20.126-16.374 36.5-36.5 36.5-10.242 0-19.527-4.276-26.172-11.129zM6 48c0-23.159 18.841-42 42-42 9.858 0 18.926 3.422 26.1 9.13-6.463-3.888-14.024-6.13-22.1-6.13-23.71 0-43 19.29-43 43 0 8.074 2.241 15.633 6.127 22.095-5.706-7.172-9.127-16.239-9.127-26.095zM52 89c-10.08 0-19.227-4.055-25.905-10.615 6.174 4.469 13.743 7.115 21.905 7.115 20.678 0 37.5-16.822 37.5-37.5 0-8.162-2.646-15.731-7.115-21.905 6.56 6.678 10.615 15.825 10.615 25.905 0 20.402-16.598 37-37 37z" fill="black" fill-rule="nonzero" stroke="none" stroke-width="1" stroke-linecap="butt" stroke-linejoin="miter" stroke-miterlimit="10" stroke-dasharray="" stroke-dashoffset="0" font-family="none" font-weight="none" font-size="none" text-anchor="none" style="mix-blend-mode: normal"></path></g><g transform="matrix(1,0,0,1,86.95594695062812,99)"><svg viewBox="0 0 146.08810609874376 162" height="162" width="146.08810609874376"><g><svg viewBox="0 0 146.08810609874376 162" height="162" width="146.08810609874376"><g><svg viewBox="0 0 192 212.91261027763755" height="162" width="146.08810609874376"><g transform="matrix(1,0,0,1,0,104.36137352852096)"><svg viewBox="0 0 192 108.5512367491166" height="108.5512367491166" width="192"><g id="SvgjsG1494"><svg viewBox="0 0 192 108.5512367491166" height="108.5512367491166" width="192" id="SvgjsSvg1493"><g><svg viewBox="0 0 192 108.5512367491166" height="108.5512367491166" width="192"><g transform="matrix(1,0,0,1,0,0)"><svg width="192" viewBox="3.98 -35.16 62.18 35.16" height="108.5512367491166" data-palette-color="url(#77523892-edcb-41af-a772-8afef355575e)"><path d="M29.22-4.47L29.22 0 3.98 0 3.98-35.16 13.67-35.16 13.67-4.47 29.22-4.47ZM66.16-9.55L66.16-9.55Q66.16-8.06 65.67-6.76 65.18-5.47 64.33-4.41 63.47-3.34 62.34-2.51 61.2-1.68 59.9-1.12 58.59-0.56 57.2-0.28 55.81 0 54.47 0L54.47 0 33.79 0 33.79-35.16 52.68-35.16Q53.93-35.16 55.3-34.97 56.66-34.79 57.97-34.4 59.27-34.01 60.46-33.37 61.64-32.74 62.53-31.82 63.43-30.91 63.95-29.71 64.48-28.52 64.48-26.98L64.48-26.98Q64.48-25.51 63.89-24.32 63.3-23.12 62.31-22.18 61.33-21.24 60.04-20.52 58.76-19.8 57.35-19.26L57.35-19.26Q59.13-18.77 60.73-17.97 62.33-17.16 63.54-15.99 64.74-14.82 65.45-13.22 66.16-11.62 66.16-9.55ZM54.64-26.12L54.64-26.12Q54.64-29.1 53.06-30.47 51.49-31.84 48.58-31.84L48.58-31.84 43.48-31.84 43.48-20.43 47.75-20.43Q49.07-20.43 50.31-20.76 51.56-21.09 52.52-21.79 53.49-22.49 54.06-23.56 54.64-24.63 54.64-26.12ZM56.35-10.16L56.35-10.16Q56.35-11.6 55.98-12.85 55.61-14.11 54.86-15.03 54.1-15.94 52.96-16.47 51.83-16.99 50.29-16.99L50.29-16.99 43.48-16.99 43.48-3.42 49.44-3.42Q50.93-3.42 52.19-3.91 53.46-4.39 54.39-5.27 55.32-6.15 55.83-7.4 56.35-8.64 56.35-10.16Z" opacity="1" transform="matrix(1,0,0,1,0,0)" fill="black" class="wordmark-text-0" id="SvgjsPath1492"></path></svg></g></svg></g></svg></g></svg></g><g transform="matrix(1,0,0,1,36.672,0)"><svg viewBox="0 0 118.656 88.52114285714286" height="88.52114285714286" width="118.656"><g><svg xmlns:dc="http://purl.org/dc/elements/1.1/" xmlns:cc="http://creativecommons.org/ns#" xmlns:rdf="http://www.w3.org/1999/02/22-rdf-syntax-ns#" xmlns:svg="http://www.w3.org/2000/svg" xmlns="http://www.w3.org/2000/svg" xmlns:sodipodi="http://sodipodi.sourceforge.net/DTD/sodipodi-0.dtd" xmlns:inkscape="http://www.inkscape.org/namespaces/inkscape" preserveAspectRatio="xMidYMid" viewBox="0 0 63 47" version="1.1" x="0" y="0" height="88.52114285714286" width="118.656" class="icon-icon-0" data-fill-palette-color="accent" id="SvgjsSvg1491"><path d="M9.5 0C4.253 0 0 4.253 0 9.5L0 37.5C0 42.747 4.253 47 9.5 47L53.5 47C58.747 47 63 42.747 63 37.5L63 9.5C63 4.253 58.747 0 53.5 0L9.5 0zM9.5 3L53.5 3C57.09 3 60 5.91 60 9.5L60 14 3 14 3 9.5C3 5.91 5.91 3 9.5 3zM12.75 6C11.187 6 9.906 7.281 9.906 8.844 9.906 10.407 11.187 11.656 12.75 11.656 14.313 11.656 15.594 10.407 15.594 8.844 15.594 7.281 14.313 6 12.75 6zM22.938 6C21.375 6 20.125 7.281 20.125 8.844 20.125 10.407 21.375 11.656 22.938 11.656 24.5 11.656 25.781 10.407 25.781 8.844 25.781 7.281 24.5 6 22.938 6zM32 6C30.437 6 29.156 7.281 29.156 8.844 29.156 10.407 30.437 11.656 32 11.656 33.562 11.656 34.813 10.407 34.813 8.844 34.813 7.281 33.562 6 32 6zM3 17L60 17 60 37.5C60 41.09 57.09 44 53.5 44L9.5 44C5.91 44 3 41.09 3 37.5L3 17zM17.969 23C17.523 23.05 17.122 23.294 16.875 23.688L8.656 36.688C8.214 37.388 8.424 38.34 9.125 38.781 9.373 38.939 9.632 39 9.906 39 10.403 39 10.902 38.764 11.188 38.313L17.344 28.563 18.625 35.781C18.707 36.236 18.997 36.628 19.406 36.844 19.813 37.059 20.297 37.063 20.719 36.875L25.625 34.688 31.438 38.719C31.787 38.964 32.21 39.064 32.625 38.969 33.04 38.87 33.389 38.594 33.594 38.219L39.719 26.938 51.594 38.563C52.184 39.141 53.139 39.154 53.719 38.563 54.299 37.971 54.312 37.017 53.719 36.438L40.406 23.406C40.07 23.078 39.592 22.936 39.125 23 38.66 23.07 38.256 23.336 38.031 23.75L31.75 35.313 26.625 31.75C26.192 31.449 25.637 31.381 25.156 31.594L21.25 33.375 19.594 24.219C19.485 23.609 19.013 23.119 18.406 23 18.254 22.971 18.117 22.983 17.969 23z" fill="black" fill-rule="evenodd"></path></svg></g></svg></g><g></g></svg></g></svg></g></svg></g></svg></g><defs><mask></mask></defs></svg><rect width="320" height="360" fill="black" stroke="none" visibility="hidden"></rect></g></mask></svg><rect width="320" height="360" fill="black" stroke="none" visibility="hidden"></rect></g></mask></svg><rect width="320" height="360" fill="black" stroke="none" visibility="hidden"></rect></g></mask><linearGradient x1="0" x2="1" y1="0.548" y2="0.55" id="5e2075f2-4b32-4b20-bf95-694feac038e8"><stop stop-color="#ff6cab" offset="0"></stop><stop stop-color="#7366ff" offset="1"></stop></linearGradient></svg><rect width="320" height="360" fill="none" stroke="none" visibility="hidden"></rect></g></svg></g></svg>